<svg width="36" height="36" viewBox="0 0 36 36" fill="none" xmlns="http://www.w3.org/2000/svg">
<rect x="0.5" y="0.5" width="35" height="35" stroke="#033260"/>
<path d="M21.6898 8H14.3102C10.8327 8 8 10.8327 8 14.3102V21.6898C8 25.1673 10.8327 28 14.3102 28H21.6898C25.1673 28 28 25.1673 28 21.6898V14.3102C28 10.8327 25.1673 8 21.6898 8ZM25.8286 14.3102V21.6898C25.8286 23.9755 23.9673 25.8286 21.6898 25.8286H14.3102C12.0245 25.8286 10.1714 23.9673 10.1714 21.6898V14.3102C10.1714 12.0245 12.0327 10.1714 14.3102 10.1714H21.6898C23.9755 10.1714 25.8286 12.0327 25.8286 14.3102Z" fill="#033260"/>
<path d="M17.9998 12.9219C15.1998 12.9219 12.9141 15.1994 12.9141 18.0076C12.9141 20.8076 15.1916 23.0933 17.9998 23.0933C20.8079 23.0933 23.0855 20.8158 23.0855 18.0076C23.0855 15.1994 20.7998 12.9219 17.9998 12.9219ZM20.9141 17.9994C20.9141 19.6076 19.6079 20.9137 17.9998 20.9137C16.3916 20.9137 15.0855 19.6076 15.0855 17.9994C15.0855 16.3913 16.3916 15.0851 17.9998 15.0851C19.6079 15.0851 20.9141 16.3994 20.9141 17.9994Z" fill="#033260"/>
<path d="M23.289 13.535C23.7398 13.535 24.1053 13.1695 24.1053 12.7187C24.1053 12.2678 23.7398 11.9023 23.289 11.9023C22.8381 11.9023 22.4727 12.2678 22.4727 12.7187C22.4727 13.1695 22.8381 13.535 23.289 13.535Z" fill="#033260"/>
</svg>
