<svg width="56" height="48" viewBox="0 0 56 48" fill="none" xmlns="http://www.w3.org/2000/svg">
<path fill-rule="evenodd" clip-rule="evenodd" d="M30.3059 48L55.8134 48L56 22.6668L39.332 22.6668C39.4035 14.5267 41.6041 11.8426 43.1866 10.7635C45.2417 9.36206 48.0719 9.23094 51.9638 9.23094L51.9638 0.000289564L51.7241 0.000300987C50.931 0.00033525 48.4642 0.000445661 48.3542 0.000289249L48.3319 0.000289247C46.518 0.000235682 42.702 0.000124722 38.181 3.08309C33.0927 6.553 30.3813 12.8989 30.3078 22.6668L30.3059 22.6668L30.3059 48Z" fill="#D99E31"/>
<path fill-rule="evenodd" clip-rule="evenodd" d="M-3.24249e-05 48L25.132 48L25.132 22.6668L9.02579 22.6668C9.09723 14.5265 11.2979 11.8424 12.8804 10.7632C14.9354 9.36182 17.7656 9.23069 21.6576 9.23069L21.6576 4.54726e-05C21.5352 4.54619e-05 18.1768 0.000228274 18.048 4.51571e-05L18.0257 4.51551e-05C16.2117 -8.40923e-06 12.3957 -0.000119369 7.8748 3.08285C2.78642 6.55279 0.0750343 12.8987 0.00154907 22.6668L-3.40249e-05 22.6668L-3.24249e-05 48Z" fill="#D99E31"/>
</svg>
