<svg width="36" height="36" viewBox="0 0 36 36" fill="none" xmlns="http://www.w3.org/2000/svg">
<rect x="0.5" y="0.5" width="35" height="35" stroke="#033260"/>
<path d="M8.48237 18.0341L13.1345 19.4133L14.8645 24.9739C15.0389 25.5608 15.7804 25.7369 16.202 25.2967L18.6007 22.8172L23.311 26.3091C23.8925 26.7346 24.7066 26.4118 24.852 25.7075L27.9776 10.6395C28.1376 9.90587 27.4107 9.28964 26.7129 9.5684L8.42422 16.7577C7.82817 16.9924 7.87178 17.8434 8.48237 18.0341ZM14.1376 18.8411L24.1687 12.5615C24.3868 12.4001 24.6339 12.7229 24.4304 12.9136L15.9403 20.499C15.8531 20.5724 15.7949 20.6751 15.7949 20.7924L15.4751 23.7268C15.4605 23.8295 15.3297 23.8295 15.3006 23.7415L13.9486 19.3693C13.8905 19.1639 13.9631 18.9584 14.1376 18.8411Z" fill="#033260"/>
</svg>
