<svg width="36" height="36" viewBox="0 0 36 36" fill="none" xmlns="http://www.w3.org/2000/svg">
<rect x="0.5" y="0.5" width="35" height="35" stroke="#033260"/>
<path fill-rule="evenodd" clip-rule="evenodd" d="M13.1451 24.9388L12.6233 24.6488L12.0449 24.7968L10.9616 25.0739L11.2384 24.0628L11.419 23.4034L11.0397 22.8346L10.8004 22.4756C9.9599 21.1383 9.5 19.5475 9.5 17.9166C9.5 13.2533 13.2785 9.5 17.9583 9.5C22.6586 9.5 26.5 13.2318 26.5 17.9166C26.5 22.638 22.6218 26.5 18 26.5C16.4385 26.5 14.9178 26.0138 13.5835 25.1844L13.5523 25.165L13.5201 25.1471L13.1451 24.9388ZM8.83337 27.1667L10.5057 26.7388L12.4166 26.25L12.7917 26.4583C14.3333 27.4166 16.125 28 18 28C23.4583 28 28 23.4583 28 17.9166C28 12.375 23.4583 8 17.9583 8C12.4583 8 8 12.4166 8 17.9166C8 19.8333 8.54167 21.7083 9.54166 23.2917L9.79169 23.6667L9.28923 25.5017L8.83337 27.1667ZM14.2275 13L14.94 13.0365C15.09 13.0365 15.2025 13.146 15.24 13.2556L16.3276 15.6285C16.3651 15.738 16.3276 15.884 16.2526 15.9935L15.3525 16.9792C15.2775 17.0522 15.2775 17.1617 15.315 17.2712C16.4776 19.4616 18.6152 20.3377 19.2527 20.5568C19.3652 20.5932 19.4777 20.5568 19.5527 20.4837L20.4903 19.3155C20.6028 19.1695 20.7903 19.133 20.9403 19.206L23.3029 20.2647C23.4529 20.3377 23.528 20.5202 23.4904 20.6663L23.3779 21.1774C23.2654 21.725 22.9279 22.236 22.4029 22.5646C21.7278 22.9662 20.9028 23.1487 19.8527 22.8567C16.5526 21.944 14.6775 19.8266 13.7025 18.5124C12.7274 17.1982 12.3149 15.884 12.5774 14.7888C12.7274 14.0587 13.2899 13.5111 13.6274 13.2191C13.7775 13.073 14.0024 13 14.2275 13Z" fill="#033260"/>
</svg>
