<svg width="34" height="28" viewBox="0 0 34 28" fill="none" xmlns="http://www.w3.org/2000/svg">
<path d="M21.6301 25.1958C21.6301 26.3004 22.5256 27.1958 23.6301 27.1958C24.7347 27.1958 25.6301 26.3004 25.6301 25.1958C25.6301 24.0912 24.7347 23.1958 23.6301 23.1958C22.5256 23.1958 21.6301 24.0912 21.6301 25.1958Z" stroke="white"/>
<path d="M10.4569 25.1958C10.4569 26.3004 11.3523 27.1958 12.4569 27.1958C13.5615 27.1958 14.4569 26.3004 14.4569 25.1958C14.4569 24.0912 13.5615 23.1958 12.4569 23.1958C11.3523 23.1958 10.4569 24.0912 10.4569 25.1958Z" stroke="white"/>
<path d="M29.3478 19.2609H8.04348L7.5 4.65217H9.56522H12.913H19.6087H33L31.1739 11.9565L30.2609 15.6087M5.6087 1H0.130444" stroke="white"/>
</svg>
