<?xml version="1.0" standalone="no"?>
<!DOCTYPE svg PUBLIC "-//W3C//DTD SVG 20010904//EN"
 "http://www.w3.org/TR/2001/REC-SVG-20010904/DTD/svg10.dtd">
<svg version="1.0" xmlns="http://www.w3.org/2000/svg"
 width="1152.000000pt" height="1152.000000pt" viewBox="0 0 1152.000000 1152.000000"
 preserveAspectRatio="xMidYMid meet">
<metadata>
Created by potrace 1.14, written by Peter Selinger 2001-2017
</metadata>
<g transform="translate(0.000000,1152.000000) scale(0.100000,-0.100000)"
fill="#000000" stroke="none">
<path d="M9493 11499 c-23 -10 -45 -24 -48 -29 -3 -6 -15 -10 -26 -10 -10 0
-19 -5 -19 -11 0 -5 -4 -7 -10 -4 -5 3 -10 2 -10 -2 0 -5 -37 -27 -82 -48 -46
-22 -85 -43 -88 -46 -3 -3 -61 -36 -130 -72 -69 -36 -159 -84 -200 -107 -41
-22 -91 -48 -110 -57 -19 -8 -38 -20 -42 -27 -4 -6 -8 -7 -8 -2 0 5 -6 4 -13
-2 -16 -14 -190 -108 -240 -130 -25 -11 -36 -22 -34 -33 3 -9 75 -129 161
-268 86 -139 156 -256 156 -261 0 -4 3 -10 8 -12 9 -4 132 -206 132 -219 0 -5
4 -9 8 -9 5 0 15 -12 23 -27 7 -16 26 -47 41 -70 15 -23 28 -46 28 -52 0 -6 4
-11 8 -11 5 0 17 -18 27 -40 10 -22 23 -40 28 -40 6 0 8 -3 4 -6 -3 -3 -1 -11
4 -18 5 -6 38 -56 72 -111 l62 -100 1 -2277 c0 -1253 3 -2280 6 -2284 5 -5
198 -7 429 -4 l46 0 425 424 424 424 2 1034 c1 568 1 1035 2 1038 0 13 1 1818
1 1837 -1 12 -7 28 -13 35 -7 7 -24 33 -37 58 -14 25 -31 51 -38 58 -7 7 -13
18 -13 23 0 6 -18 37 -40 70 -22 33 -40 63 -40 65 0 3 -18 32 -40 65 -22 33
-40 62 -40 65 0 2 -22 41 -50 85 -27 44 -50 85 -50 90 0 5 -4 9 -9 9 -5 0 -12
8 -15 18 -7 18 -20 41 -51 87 -32 48 -44 68 -57 95 -7 14 -15 27 -18 30 -6 6
-9 10 -80 130 -29 47 -71 117 -95 155 -25 39 -48 77 -52 85 -7 16 -34 59 -90
147 -18 28 -33 56 -33 62 0 6 -4 11 -10 11 -5 0 -10 7 -10 15 0 8 -4 15 -10
15 -5 0 -10 9 -10 19 0 11 -4 21 -9 23 -5 2 -27 33 -48 70 l-38 66 -42 -19z"/>
<path d="M800 9028 l0 -666 2896 0 c1592 0 2897 -2 2900 -5 4 -3 -30 -36 -166
-161 -19 -18 -64 -56 -99 -85 -35 -29 -70 -58 -77 -64 -34 -30 -44 -37 -44
-30 0 4 -6 0 -12 -9 -7 -9 -62 -51 -123 -94 -60 -43 -111 -82 -113 -86 -2 -4
-8 -8 -13 -8 -6 0 -38 -19 -72 -42 -34 -23 -63 -41 -65 -40 -1 2 -9 -4 -17
-12 -8 -8 -41 -29 -72 -47 -32 -18 -65 -38 -75 -46 -9 -8 -22 -15 -30 -17 -7
-1 -27 -11 -43 -22 -17 -12 -59 -36 -95 -55 -36 -18 -67 -35 -70 -38 -3 -4
-52 -28 -110 -56 -58 -27 -112 -55 -121 -62 -8 -7 -20 -13 -26 -13 -5 0 -23
-6 -39 -14 -65 -32 -173 -80 -288 -127 -66 -27 -130 -54 -141 -59 -47 -21
-301 -112 -317 -113 -10 -1 -18 -5 -18 -10 0 -5 -6 -7 -14 -4 -7 3 -22 0 -32
-7 -11 -8 -35 -17 -54 -21 -19 -4 -46 -12 -60 -18 -14 -5 -29 -11 -35 -13 -5
-1 -41 -12 -80 -24 -38 -12 -77 -23 -85 -25 -8 -2 -15 -4 -15 -5 0 -1 -7 -3
-15 -5 -27 -6 -255 -67 -270 -73 -8 -3 -26 -7 -40 -9 -14 -2 -39 -8 -55 -13
-27 -9 -118 -30 -195 -46 -14 -3 -41 -9 -60 -14 -19 -5 -48 -12 -65 -14 -35
-7 -70 -14 -105 -21 -14 -3 -36 -8 -50 -11 -14 -3 -38 -7 -55 -10 -39 -6 -70
-12 -70 -14 0 -1 -16 -3 -36 -5 -20 -1 -46 -6 -58 -10 -12 -3 -42 -8 -67 -10
-24 -3 -48 -6 -52 -9 -4 -2 -35 -8 -67 -11 -33 -4 -69 -9 -80 -12 -11 -2 -34
-6 -52 -8 -17 -2 -49 -6 -70 -9 -21 -3 -76 -10 -123 -16 -47 -6 -98 -12 -115
-14 -37 -5 -131 -15 -205 -22 -30 -3 -75 -7 -100 -10 -25 -2 -76 -7 -115 -9
-38 -3 -92 -7 -120 -9 -95 -9 -350 -20 -462 -20 -62 -1 -113 -3 -113 -6 0 -3
-75 -5 -168 -5 -92 0 -173 -1 -179 -3 -10 -3 -13 -62 -13 -249 l0 -245 409
-408 409 -409 39 4 c21 2 79 7 128 10 126 8 290 22 290 24 0 1 32 4 70 6 39 3
90 7 115 10 25 3 67 8 93 10 26 2 65 6 85 9 20 4 60 9 87 11 28 2 59 6 70 9
11 2 45 7 75 11 152 19 231 31 395 60 50 9 107 18 128 21 46 7 72 12 72 14 0
1 14 3 30 5 17 3 64 12 105 21 41 9 86 17 100 19 14 2 36 6 50 9 14 3 59 13
100 22 41 8 82 18 90 21 8 3 24 8 35 9 11 2 31 7 45 10 14 4 32 8 40 9 8 1 71
17 140 34 69 18 132 34 140 36 8 2 62 18 120 35 139 40 143 41 160 45 8 1 22
5 30 8 8 3 38 13 65 22 44 15 64 20 100 28 6 2 15 5 20 8 8 5 55 19 75 23 3 1
11 5 18 9 6 5 12 6 12 2 0 -3 14 2 32 11 17 9 40 18 52 19 20 3 103 33 251 90
39 15 75 28 80 29 6 2 21 8 35 13 14 6 66 28 115 48 50 20 101 42 115 48 14 5
27 11 30 12 3 0 25 10 50 21 25 11 65 29 90 40 183 78 707 354 827 436 23 15
44 28 48 28 3 0 21 11 39 25 18 14 38 25 44 25 7 0 12 5 12 10 0 6 7 10 15 10
8 0 15 3 15 8 0 4 17 16 38 27 20 11 42 24 49 30 7 5 18 15 26 21 7 6 24 17
37 24 13 7 29 17 34 22 6 5 43 31 81 59 39 28 83 60 98 72 25 20 103 82 134
107 7 6 14 10 17 10 3 0 17 11 32 25 15 14 40 36 56 48 16 12 39 31 52 42 12
11 49 43 81 70 76 64 405 392 470 469 28 32 57 66 65 75 9 9 33 39 55 66 22
28 42 52 45 55 4 3 43 55 88 115 45 61 86 115 90 120 5 6 17 24 28 40 10 17
22 35 26 40 42 54 214 338 209 344 -1 2 1 7 6 10 5 3 20 29 34 56 14 28 30 59
36 70 37 70 37 70 4 118 -17 25 -31 50 -31 56 0 6 -4 11 -10 11 -5 0 -10 5
-10 11 0 5 -17 36 -38 67 -21 31 -42 64 -45 72 -4 8 -21 35 -37 60 -16 25 -37
60 -47 78 -9 17 -20 32 -25 32 -4 0 -8 7 -8 15 0 8 -4 15 -8 15 -4 0 -13 12
-20 28 -12 28 -93 157 -112 180 -6 6 -8 12 -5 12 3 0 -3 10 -15 22 -11 12 -20
26 -20 31 0 4 -13 28 -30 52 -16 24 -30 48 -30 54 0 6 -4 11 -10 11 -5 0 -10
7 -10 15 0 8 -4 15 -8 15 -5 0 -16 16 -25 35 -9 19 -22 36 -29 36 -7 1 -1609
2 -3560 3 l-3548 1 0 -667z"/>
<path d="M1468 3959 l-668 -666 0 -980 0 -979 280 -280 c154 -154 283 -278
285 -275 3 2 5 -3 5 -11 0 -9 4 -18 10 -20 5 -2 178 -171 383 -375 l373 -373
3528 0 3527 0 668 668 668 667 -1 980 -1 980 -667 665 -667 665 -3528 0 -3527
0 -668 -666z m7722 -1645 l0 -980 -3527 0 -3527 1 -1 975 0 975 24 5 c14 3
1601 5 3528 5 l3503 0 0 -981z"/>
</g>
</svg>
