<svg width="120" height="95" viewBox="0 0 120 95" fill="none" xmlns="http://www.w3.org/2000/svg">
<path d="M46.0564 3.6247C45.4831 4.73755 44.8938 5.88219 44.2887 7.05863C43.6835 8.23506 43.0465 9.4115 42.3776 10.5879C41.7406 11.7326 41.0717 12.8613 40.371 13.9742C39.7021 15.0552 39.0333 16.0568 38.3644 16.9789C37.7911 17.7102 37.1063 18.5527 36.31 19.5066C35.5138 20.4605 34.7971 21.2872 34.1601 21.9867C26.5477 30.1581 18.4257 34.2439 9.79415 34.2439C8.42456 34.2439 7.1346 34.1326 5.92427 33.91C4.74578 33.7192 3.71063 33.449 2.81881 33.0992C1.95883 32.7177 1.27404 32.2884 0.764422 31.8115C0.254808 31.3346 0 30.8258 0 30.2853C0 29.5222 0.461839 28.9181 1.38551 28.473C2.30919 27.996 3.51952 27.7576 5.01651 27.7576C5.58983 27.8212 6.27463 27.9324 7.0709 28.0914C7.86717 28.2504 8.61567 28.4571 9.31639 28.7114C10.049 28.934 10.6541 29.1884 11.1319 29.4745C11.6415 29.7289 11.8963 29.9833 11.8963 30.2376C11.8963 30.333 11.8485 30.3807 11.753 30.3807C11.6893 30.3807 11.6415 30.3648 11.6097 30.333C9.44379 28.9976 7.262 28.3299 5.06429 28.3299C2.51622 28.3299 1.24218 28.9499 1.24218 30.1899C1.24218 30.7305 1.46514 31.2233 1.91105 31.6684C2.35697 32.1136 2.96213 32.4951 3.72656 32.8131C4.52283 33.131 5.46243 33.3695 6.54536 33.5285C7.66014 33.6875 8.8864 33.7669 10.2241 33.7669C14.8107 33.7669 19.4291 32.2725 24.0793 29.2838C28.7614 26.2632 33.1727 21.7959 37.3133 15.8819C38.5874 14.0696 39.8614 12.1618 41.1354 10.1587C42.4095 8.15557 43.572 6.12065 44.6231 4.05394C44.9416 3.48162 45.2442 2.95699 45.5309 2.48006C45.8175 2.00312 46.0723 1.58978 46.2953 1.24003C46.5182 0.890276 46.6934 0.620014 46.8208 0.429241C46.9482 0.20667 46.996 0.095385 46.9641 0.095385C47.0279 0.095385 47.1712 0.0794877 47.3941 0.0476925C47.6489 0.0158973 47.8878 0 48.1108 0C48.3656 0 48.5885 0.0158973 48.7797 0.0476925C48.9708 0.0476925 49.0504 0.0953863 49.0185 0.190774C48.286 2.22569 47.5375 4.19702 46.773 6.10476C46.0405 8.0125 45.3557 9.90434 44.7187 11.7803C44.0816 13.6562 43.5083 15.5481 42.9987 17.4558C42.521 19.3317 42.1547 21.2713 41.8999 23.2744C41.868 23.4652 41.8362 23.8308 41.8043 24.3713C41.7725 24.8801 41.7406 25.4365 41.7088 26.0406C41.6769 26.6129 41.6451 27.1535 41.6132 27.6622C41.5814 28.1709 41.5654 28.4889 41.5654 28.6161C41.5654 32.7495 42.4572 36.247 44.2409 39.1086C46.0246 41.9702 48.6682 44.2277 52.1718 45.8811C54.0828 46.8032 56.0257 47.4868 58.0005 47.9319C59.9752 48.4088 62.0296 48.6473 64.1636 48.6473C65.8836 48.6473 67.4284 48.5201 68.7979 48.2657C70.1675 48.0432 71.3301 47.7252 72.2856 47.3119C73.2411 46.9303 73.9737 46.4693 74.4833 45.9288C75.0248 45.3882 75.2955 44.8 75.2955 44.1641C75.2955 43.4328 74.977 42.7174 74.34 42.0179C73.7348 41.3502 72.8749 40.7461 71.7601 40.2056C70.6772 39.6968 69.3872 39.2835 67.8902 38.9655C66.3932 38.6476 64.7847 38.4886 63.0648 38.4886C60.9626 38.4886 58.8764 38.6794 56.8061 39.0609C54.7676 39.4425 52.984 39.983 51.4551 40.6825C51.2959 40.7461 51.1685 40.7779 51.0729 40.7779C51.0092 40.8097 50.9455 40.8256 50.8818 40.8256C50.6589 40.8256 50.5474 40.6984 50.5474 40.444C50.5474 40.3168 50.6748 40.1738 50.9296 40.0148H50.834C50.834 39.983 51.1525 39.8717 51.7896 39.6809C52.4584 39.522 53.2706 39.3312 54.2262 39.1086C55.1817 38.886 56.2168 38.6635 57.3316 38.4409C58.4464 38.2501 59.4656 38.107 60.3893 38.0117C61.1856 37.9481 61.95 37.8845 62.6826 37.8209C63.4151 37.7891 64.1318 37.7732 64.8325 37.7732C66.5843 37.7732 68.1928 37.9163 69.6579 38.2024C71.1231 38.4886 72.3812 38.886 73.4323 39.3948C74.5152 39.9035 75.3433 40.5076 75.9166 41.2071C76.5218 41.9066 76.8244 42.6697 76.8244 43.4964C76.8244 44.4185 76.474 45.2452 75.7733 45.9765C75.1044 46.7078 74.1648 47.3278 72.9545 47.8365C71.776 48.3452 70.3746 48.7268 68.7502 48.9811C67.1576 49.2673 65.4218 49.4104 63.5425 49.4104C60.0071 49.4104 56.8061 48.8858 53.9395 47.8365C51.0729 46.819 48.6204 45.3564 46.5819 43.4487C44.5753 41.541 43.0146 39.2517 41.8999 36.5809C40.8169 33.91 40.2755 30.9371 40.2755 27.6622C40.2755 26.2632 40.4029 24.6893 40.6577 22.9405C40.9125 21.1918 41.231 19.4589 41.6132 17.742C41.9954 15.9932 42.4095 14.3716 42.8554 12.8772C43.3331 11.351 43.7791 10.1428 44.1931 9.25252C44.5753 8.39404 44.7664 7.90121 44.7664 7.77403C44.7664 7.77403 44.862 7.58325 45.0531 7.20171C45.2442 6.78836 45.4512 6.35912 45.6742 5.91398C45.8971 5.46885 46.0883 5.0555 46.2475 4.67395C46.4386 4.26061 46.5342 4.05394 46.5342 4.05394C46.5342 3.6406 46.5182 3.40213 46.4864 3.33854C46.4864 3.24315 46.3431 3.33854 46.0564 3.6247Z" fill="#050122"/>
<path d="M58.5301 30.2853C58.5301 30.5079 57.8772 31.0325 56.5713 31.8592C53.3544 33.8941 51.0452 34.9116 49.6437 34.9116C47.5734 34.9116 46.5383 33.7034 46.5383 31.2869C46.5383 29.5063 47.3982 27.7258 49.1182 25.9452C50.87 24.1329 52.5262 23.2267 54.0869 23.2267C54.5647 23.2267 54.8036 23.4493 54.8036 23.8944C54.8036 24.9755 53.864 26.5016 51.9848 28.473C50.4878 30.031 49.2615 31.0961 48.306 31.6684C48.4015 33.0674 49.0704 33.7669 50.3126 33.7669C51.4911 33.7669 53.4658 32.9721 56.2369 31.3823C56.4598 31.2551 57.0809 30.8735 58.1001 30.2376C58.1957 30.1422 58.2913 30.0945 58.3868 30.0945C58.4824 30.0945 58.5301 30.1581 58.5301 30.2853ZM53.3225 24.8006C53.3225 24.419 53.211 24.2283 52.9881 24.2283C52.1918 24.2283 51.2204 25.0232 50.0737 26.6129C48.9271 28.2027 48.3378 29.6335 48.306 30.9053C48.9112 30.7146 49.8667 29.8879 51.1726 28.4253C52.6059 26.8355 53.3225 25.6273 53.3225 24.8006Z" fill="#050122"/>
<path d="M71.4954 30.2853C71.4954 30.4125 71.3362 30.6033 71.0177 30.8576C69.6162 32.0341 68.1989 32.6223 66.7656 32.6223C65.8738 32.6223 65.1093 32.3838 64.4723 31.9069C63.0072 33.8146 61.4146 34.7685 59.6947 34.7685C58.4206 34.7685 57.7836 33.9736 57.7836 32.3838C57.7836 30.3171 58.8029 28.2345 60.8413 26.136C62.5613 24.3872 63.8194 23.5129 64.6156 23.5129C65.1253 23.5129 65.3801 23.6718 65.3801 23.9898C65.3801 24.0852 65.2845 24.2124 65.0934 24.3713C64.329 24.5303 63.2938 25.3411 61.9879 26.8037C60.3954 28.5843 59.5991 30.3012 59.5991 31.9546C59.5991 33.0356 59.9813 33.5762 60.7458 33.5762C61.8605 33.5762 62.9912 32.9244 64.1379 31.6207C63.5327 30.953 63.2301 30.1263 63.2301 29.1407C63.2301 27.996 63.5168 27.0104 64.0901 26.1837C64.5997 25.4842 65.1412 25.1344 65.7145 25.1344C66.2878 25.1344 66.6222 25.5319 66.7178 26.3268C66.7178 27.7258 66.2241 29.2361 65.2367 30.8576C65.7782 31.4618 66.5108 31.7638 67.4344 31.7638C68.6766 31.7638 69.887 31.2551 71.0654 30.2376C71.161 30.1422 71.2566 30.0945 71.3521 30.0945C71.4477 30.0945 71.4954 30.1581 71.4954 30.2853ZM66.24 26.6129C66.24 26.295 66.1286 26.136 65.9056 26.136C65.6189 26.136 65.3164 26.3904 64.9979 26.8991C64.6793 27.4078 64.5201 28.0596 64.5201 28.8545C64.5201 29.5222 64.6634 30.0787 64.9501 30.5238C65.8101 29.1884 66.24 27.8848 66.24 26.6129Z" fill="#050122"/>
<path d="M75.8173 32.9085C75.7218 33.0356 75.5944 33.2105 75.4351 33.4331C75.2759 33.6239 75.1166 33.8146 74.9574 34.0054C74.8299 34.228 74.7025 34.4029 74.5751 34.53C74.4477 34.689 74.3522 34.7685 74.2885 34.7685C73.8744 34.7685 73.6674 34.5459 73.6674 34.1008C73.6674 33.9418 73.7789 33.6239 74.0018 33.1469C74.384 32.6064 74.7663 32.0818 75.1485 31.573C75.5307 31.0643 75.897 30.5397 76.2473 29.9992C77.3621 28.4094 77.9195 27.2806 77.9195 26.6129C77.9195 26.3268 77.8239 26.1837 77.6328 26.1837C77.5054 26.1837 77.3143 26.2473 77.0595 26.3745C76.2314 26.9786 75.244 27.7099 74.0974 28.5684C72.9826 29.4268 71.6608 30.4125 70.1319 31.5254H69.7975C69.5746 31.5254 69.4631 31.4936 69.4631 31.43C69.4631 31.3664 69.6383 31.2074 69.9886 30.953C71.1034 30.0628 72.266 29.1566 73.4763 28.2345C74.7185 27.2806 76.0244 26.295 77.3939 25.2775C77.7443 24.9596 78.238 24.8006 78.875 24.8006C79.512 24.8006 79.8306 25.0867 79.8306 25.6591C79.8306 26.295 79.3687 27.3124 78.445 28.7114C78.3813 28.8386 78.3017 28.9658 78.2061 29.093C78.1106 29.1884 78.031 29.2997 77.9673 29.4268C78.2221 29.4268 78.5247 29.4268 78.875 29.4268C79.2254 29.4268 79.6235 29.4109 80.0694 29.3791C80.8339 29.3156 81.4868 29.3156 82.0283 29.3791C82.1557 29.1566 82.2831 28.934 82.4105 28.7114C82.5379 28.4889 82.6812 28.2504 82.8405 27.996C83.1908 27.4555 83.5252 26.9627 83.8438 26.5175C84.1941 26.0724 84.5445 25.675 84.8948 25.3252C85.1178 25.039 85.4681 24.896 85.9459 24.896C86.2007 24.9596 86.3281 25.039 86.3281 25.1344C86.3281 25.1344 85.7707 26.0565 84.656 27.9007C83.5412 29.7448 82.9838 31.0802 82.9838 31.9069C82.9838 32.8926 83.4138 33.3854 84.2738 33.3854C85.3567 33.3854 86.9333 32.4474 89.0036 30.5715C89.0992 30.4761 89.1947 30.4284 89.2903 30.4284C89.3858 30.4284 89.4336 30.492 89.4336 30.6192C89.4336 30.8099 89.1151 31.1279 88.4781 31.573C87.4588 32.4633 86.5352 33.1469 85.707 33.6239C84.8789 34.069 84.0986 34.2916 83.366 34.2916C81.9327 34.2916 81.2161 33.6875 81.2161 32.4792C81.2161 31.6843 81.3912 30.8735 81.7416 30.0469C81.3594 30.0151 80.8976 29.9992 80.3561 29.9992C79.8465 29.9992 79.2732 30.031 78.6361 30.0945C78.1902 30.1263 77.9036 30.1422 77.7762 30.1422C77.6488 30.1422 77.5532 30.1422 77.4895 30.1422C77.0436 30.7782 76.6455 31.3823 76.2951 31.9546C75.9766 32.5269 75.8173 32.8449 75.8173 32.9085Z" fill="#050122"/>
<path d="M105.24 30.2853C105.24 30.4761 105.001 30.7305 104.523 31.0484C100.605 33.6875 97.9618 35.007 96.5922 35.007C95.7004 35.007 95.2545 34.4982 95.2545 33.4808C95.2545 32.9085 95.3659 32.3361 95.5889 31.7638C95.9074 30.9689 96.0667 30.5556 96.0667 30.5238C96.0667 30.3966 96.0189 30.333 95.9233 30.333C95.8915 30.333 95.8119 30.3648 95.6845 30.4284C94.9837 31.1279 93.9645 31.9705 92.6268 32.9562C90.9068 34.228 89.7124 34.8639 89.0435 34.8639C88.2791 34.8639 87.8969 34.4823 87.8969 33.7193C87.8969 33.2741 88.4543 32.05 89.5691 30.0469C90.6839 28.0119 91.2413 26.8355 91.2413 26.5175C91.2413 26.1678 90.9546 25.9929 90.3813 25.9929C90.2539 25.9929 90.1902 25.8021 90.1902 25.4206C90.4768 25.3252 90.7794 25.2775 91.0979 25.2775C92.2127 25.2775 92.7701 25.5955 92.7701 26.2314C92.7701 26.9309 92.2764 28.1073 91.289 29.7607C90.3016 31.4141 89.808 32.4474 89.808 32.8608C89.808 33.1151 89.9194 33.2423 90.1424 33.2423C90.652 33.2423 91.8942 32.3997 93.8689 30.7146C95.8756 29.0294 97.4203 27.5032 98.5033 26.136C98.981 25.6591 99.3314 25.4206 99.5543 25.4206C99.9684 25.4206 100.175 25.6273 100.175 26.0406C100.175 26.2632 100.064 26.5493 99.841 26.8991C97.9299 29.7607 96.9744 31.6207 96.9744 32.4792C96.9744 33.2741 97.3407 33.6716 98.0733 33.6716C99.1881 33.6716 101.211 32.67 104.141 30.6669C104.3 30.5397 104.523 30.3966 104.81 30.2376C104.905 30.1422 105.001 30.0945 105.096 30.0945C105.192 30.0945 105.24 30.1581 105.24 30.2853Z" fill="#050122"/>
<path d="M119.489 30.2853C119.361 30.6987 118.262 31.5254 116.192 32.7654C114.122 33.9736 112.354 35.0547 110.889 36.0085C106.334 44.9113 103.499 50.2848 102.385 52.1289C99.2315 57.3434 96.6038 59.9506 94.5016 59.9506C93.5461 59.9506 93.0683 59.3306 93.0683 58.0906C93.0683 50.7776 98.5945 43.401 109.647 35.9608C110.379 34.53 111.717 31.8115 113.66 27.8053C113.66 27.7735 113.628 27.7576 113.564 27.7576C113.501 27.7576 113.389 27.8371 113.23 27.996C112.593 28.6002 111.749 29.3791 110.698 30.333C108.436 32.4315 106.589 33.4808 105.156 33.4808C104.487 33.4808 104.152 33.0833 104.152 32.2884C104.152 30.8576 105.188 29.2043 107.258 27.3283C109.487 25.2934 111.669 24.276 113.803 24.276C114.408 24.276 114.918 24.4031 115.332 24.6575L116.335 23.2744C116.558 22.9882 116.781 22.8451 117.004 22.8451C117.418 22.8451 117.625 23.0677 117.625 23.5129C117.625 23.7354 117.546 23.958 117.386 24.1806C115.889 26.4063 113.931 29.9356 111.51 34.7685C113.134 33.751 114.615 32.8926 115.953 32.1931C117.546 31.271 118.581 30.6192 119.059 30.2376C119.154 30.1422 119.25 30.0945 119.345 30.0945C119.441 30.0945 119.489 30.1581 119.489 30.2853ZM114.998 25.2298C114.998 25.1026 114.854 25.039 114.568 25.039C112.848 25.039 110.969 25.8657 108.93 27.5191C106.892 29.1407 105.872 30.5874 105.872 31.8592C105.872 32.2408 106.048 32.4315 106.398 32.4315C107.704 32.4315 110.491 30.1581 114.759 25.6114C114.918 25.3888 114.998 25.2616 114.998 25.2298ZM108.978 37.344C99.2633 44.2118 94.4061 51.0002 94.4061 57.709C94.4061 58.5357 94.6768 58.9491 95.2183 58.9491C97.2567 58.9491 101.843 51.7474 108.978 37.344Z" fill="#050122"/>
<path d="M111.618 88.7045C111.618 90.7394 110.583 92.3133 108.512 93.4261C106.601 94.4754 104.165 95 101.203 95C95.1191 95 89.7682 93.2035 85.1498 89.6106C81.9328 87.0988 78.6044 83.1879 75.1645 77.8781C70.8328 71.2964 68.2529 67.5286 67.4247 66.5747C66.2463 66.7019 65.3067 66.7814 64.6059 66.8132C56.3566 74.9211 48.2346 78.975 40.24 78.975C37.3097 78.975 34.7139 78.4981 32.4525 77.5442C30.191 76.6221 29.0603 75.4775 29.0603 74.1103C29.0603 72.5523 30.4459 71.7733 33.2169 71.7733C35.8924 71.7733 38.5997 72.8385 41.3389 74.9688C41.3389 75.1913 41.2433 75.3026 41.0522 75.3026C40.9566 75.3026 40.5267 75.0482 39.7622 74.5395C38.8067 73.9354 37.9149 73.4585 37.0868 73.1087C35.8127 72.6 34.5228 72.3456 33.2169 72.3456C31.5288 72.3456 30.6847 72.9179 30.6847 74.0626C30.6847 75.4934 31.9747 76.6062 34.5546 77.4011C36.4338 77.9734 38.4086 78.2596 40.4789 78.2596C47.709 78.2596 55.1303 74.46 62.7427 66.8609C60.4813 66.8291 58.8091 66.3521 57.7261 65.4301C56.9617 64.7942 56.5795 64.0788 56.5795 63.2839C56.5795 62.2028 57.5828 61.6623 59.5894 61.6623C61.6916 61.6623 63.746 62.33 65.7526 63.6654C71.2309 57.5607 76.0723 50.5179 80.2766 42.5372C80.404 42.3783 80.6269 42.2193 80.9455 42.0603C81.7099 42.2193 82.0921 42.3783 82.0921 42.5372C82.0921 42.569 82.0921 42.6167 82.0921 42.6803C82.0602 42.7121 82.0443 42.7598 82.0443 42.8234C80.7703 45.2399 79.4007 47.5927 77.9355 49.882C74.4319 55.4463 70.7213 60.3269 66.8036 64.5239C67.1222 64.7783 67.5999 65.1916 68.2369 65.7639C74.002 64.7783 79.7351 62.0915 85.4364 57.7037C90.5963 53.6657 94.8961 48.944 98.336 43.5388C98.4953 43.2844 98.6864 43.1572 98.9094 43.1572H100.295C100.677 43.1572 100.868 43.2367 100.868 43.3957C98.1609 47.243 95.2624 50.6292 92.1729 53.5544C84.7198 60.6448 76.9322 64.9054 68.8103 66.3363C70.1798 67.7671 72.9509 71.5189 77.1233 77.5919C80.7225 82.8382 83.9872 86.6377 86.9175 88.9906C91.2174 92.4881 96.0109 94.2369 101.298 94.2369C103.974 94.2369 106.108 93.7759 107.7 92.8538C109.197 91.9635 109.946 90.803 109.946 89.3722C109.946 87.7188 108.066 86.1926 104.308 84.7936C100.9 83.5536 97.5557 82.9336 94.2751 82.9336C90.867 82.9336 88.1915 83.331 86.2486 84.1259C86.0894 84.1895 85.962 84.2213 85.8664 84.2213C85.6753 84.2213 85.5798 84.1418 85.5798 83.9828C85.5798 83.6967 85.6912 83.5218 85.9142 83.4582C88.3986 82.6315 91.3448 82.2182 94.7528 82.2182C98.6705 82.2182 102.301 82.7428 105.646 83.792C109.627 85.0321 111.618 86.6695 111.618 88.7045ZM66.8992 65.9547C66.5807 65.6367 66.3259 65.3983 66.1348 65.2393L65.3226 66.0978C65.8641 66.0978 66.3896 66.0501 66.8992 65.9547ZM65.1315 64.3331C63.4434 62.9341 61.6119 62.2346 59.6372 62.2346C58.1721 62.2346 57.4395 62.648 57.4395 63.4746C57.4395 65.1916 59.4302 66.0819 63.4115 66.1455C63.6026 65.9547 64.1759 65.3506 65.1315 64.3331Z" fill="#050122"/>
<path d="M97.868 72.6795C97.868 72.8703 97.6291 73.1246 97.1513 73.4426C93.2337 76.0816 90.59 77.4011 89.2205 77.4011C88.3286 77.4011 87.8827 76.8924 87.8827 75.8749C87.8827 75.3026 87.9942 74.7303 88.2172 74.158C88.5357 73.3631 88.6949 72.9497 88.6949 72.9179C88.6949 72.7908 88.6471 72.7272 88.5516 72.7272C88.5197 72.7272 88.4401 72.759 88.3127 72.8226C87.612 73.5221 86.5928 74.3646 85.255 75.3503C83.5351 76.6221 82.3407 77.258 81.6718 77.258C80.9074 77.258 80.5252 76.8765 80.5252 76.1134C80.5252 75.6683 81.0826 74.4441 82.1973 72.441C83.3121 70.4061 83.8695 69.2297 83.8695 68.9117C83.8695 68.5619 83.5829 68.3871 83.0095 68.3871C82.8821 68.3871 82.8184 68.1963 82.8184 67.8148C83.1051 67.7194 83.4077 67.6717 83.7262 67.6717C84.841 67.6717 85.3984 67.9896 85.3984 68.6255C85.3984 69.325 84.9047 70.5015 83.9173 72.1549C82.9299 73.8082 82.4362 74.8416 82.4362 75.2549C82.4362 75.5093 82.5477 75.6365 82.7707 75.6365C83.2803 75.6365 84.5225 74.7939 86.4972 73.1087C88.5038 71.4236 90.0486 69.8974 91.1315 68.5302C91.6093 68.0532 91.9596 67.8148 92.1826 67.8148C92.5967 67.8148 92.8037 68.0214 92.8037 68.4348C92.8037 68.6573 92.6922 68.9435 92.4693 69.2932C90.5582 72.1549 89.6027 74.0149 89.6027 74.8734C89.6027 75.6683 89.969 76.0657 90.7015 76.0657C91.8163 76.0657 93.8388 75.0641 96.7691 73.061C96.9284 72.9338 97.1513 72.7908 97.438 72.6318C97.5335 72.5364 97.6291 72.4887 97.7247 72.4887C97.8202 72.4887 97.868 72.5523 97.868 72.6795Z" fill="#050122"/>
<path d="M110.301 71.5825C110.684 71.1374 111.161 70.5651 111.735 69.8656C112.34 69.1661 112.897 68.4984 113.407 67.8624C113.694 67.6717 113.98 67.624 114.267 67.7194C114.553 67.8148 114.633 67.9419 114.506 68.1009C113.55 69.5317 112.849 70.8035 112.404 71.9164C111.958 73.0292 111.735 73.8082 111.735 74.2534C111.735 75.0482 112.101 75.4457 112.834 75.4457C113.948 75.4457 115.971 74.4441 118.901 72.441C118.965 72.3774 119.108 72.2661 119.331 72.1072C119.586 71.9482 119.761 71.8687 119.857 71.8687C119.952 71.8687 120 71.9323 120 72.0595C120 72.2502 119.761 72.5046 119.283 72.8226C115.334 75.4616 112.69 76.7811 111.352 76.7811C110.461 76.7811 110.015 76.2724 110.015 75.2549C110.015 74.937 110.047 74.6031 110.11 74.2534C110.206 73.8718 110.301 73.538 110.397 73.2518C110.524 72.9656 110.62 72.7272 110.684 72.5364C110.779 72.3456 110.827 72.2661 110.827 72.2979C110.827 72.1707 110.779 72.1072 110.684 72.1072C110.461 72.3615 110.11 72.7272 109.633 73.2041C109.155 73.681 108.645 74.158 108.104 74.6349C107.562 75.1118 107.021 75.5252 106.479 75.8749C105.938 76.1929 105.508 76.336 105.189 76.3042C104.807 76.2724 104.568 76.1452 104.473 75.9226C104.377 75.6683 104.377 75.3662 104.473 75.0165C104.568 74.6667 104.728 74.2852 104.95 73.8718C105.173 73.4585 105.412 73.061 105.667 72.6795C105.731 72.5841 105.842 72.4092 106.002 72.1549C106.161 71.8687 106.304 71.5984 106.432 71.3441C106.591 71.0897 106.702 70.883 106.766 70.724C106.83 70.5651 106.798 70.5333 106.67 70.6287C106.639 70.5651 106.511 70.6605 106.288 70.9148C106.097 71.1374 105.826 71.4395 105.476 71.821C105.126 72.2025 104.712 72.6159 104.234 73.061C103.788 73.4744 103.278 73.8559 102.705 74.2057C102.291 74.46 101.861 74.7303 101.415 75.0165C100.969 75.2708 100.523 75.5093 100.077 75.7319C99.6632 75.9226 99.2332 76.0816 98.7873 76.2088C98.3732 76.336 97.9592 76.3837 97.5451 76.3519C97.0992 76.3201 96.7011 76.2247 96.3507 76.0657C95.9685 75.8749 95.7774 75.4775 95.7774 74.8734C95.7774 74.5236 95.8729 74.2216 96.0641 73.9672C96.2233 73.7128 96.3985 73.5856 96.5896 73.5856C96.7488 73.5856 96.8763 73.6651 96.9718 73.8241C97.0674 73.9831 97.1788 74.1739 97.3062 74.3964C97.4336 74.5872 97.577 74.7621 97.7362 74.9211C97.8955 75.08 98.1184 75.1595 98.4051 75.1595H98.6917C98.9466 75.1595 99.5676 74.937 100.555 74.4918C102.307 73.6651 103.772 72.6477 104.95 71.4394C106.161 70.2312 107.244 69.0071 108.199 67.7671C108.677 67.2901 109.027 67.0517 109.25 67.0517C109.346 67.0517 109.457 67.0993 109.585 67.1947C109.744 67.2583 109.84 67.3855 109.871 67.5763C109.935 67.7671 109.887 68.0373 109.728 68.3871C109.601 68.705 109.33 69.1184 108.916 69.6271C108.661 69.8815 108.359 70.263 108.008 70.7717C107.69 71.2805 107.355 71.821 107.005 72.3933C106.686 72.9656 106.384 73.5062 106.097 74.0149C105.842 74.5236 105.667 74.8893 105.572 75.1118C105.603 75.3662 105.81 75.3821 106.193 75.1595C106.607 74.937 107.069 74.619 107.578 74.2057C108.12 73.7923 108.645 73.3472 109.155 72.8703C109.664 72.3615 110.047 71.9323 110.301 71.5825Z" fill="#050122"/>
</svg>
